<svg width="39" height="39" viewBox="0 0 39 39" fill="none" xmlns="http://www.w3.org/2000/svg">
<path d="M19.5545 38.8951C30.1584 38.8951 38.7545 30.299 38.7545 19.6951C38.7545 9.09125 30.1584 0.495117 19.5545 0.495117C8.95063 0.495117 0.354492 9.09125 0.354492 19.6951C0.354492 30.299 8.95063 38.8951 19.5545 38.8951Z" fill="url(#paint0_linear)"/>
<path d="M24.3813 20.4466H20.9553V32.9979H15.7646V20.4466H13.2959V16.0356H15.7646V13.1812C15.7646 11.14 16.7342 7.9436 21.0015 7.9436L24.8464 7.95969V12.2413H22.0567C21.5991 12.2413 20.9556 12.47 20.9556 13.4437V16.0397H24.8348L24.3813 20.4466Z" fill="white"/>
<defs>
<linearGradient id="paint0_linear" x1="2.64813" y1="9.40849" x2="40.2295" y2="38.0858" gradientUnits="userSpaceOnUse">
<stop stop-color="#FC7F5D"/>
<stop offset="1" stop-color="#F8254B" stop-opacity="0.7"/>
</linearGradient>
</defs>
</svg>
