<svg width="40" height="39" viewBox="0 0 40 39" fill="none" xmlns="http://www.w3.org/2000/svg">
<g clip-path="url(#clip0)">
<path d="M19.8143 38.8932C30.4181 38.8932 39.0143 30.297 39.0143 19.6932C39.0143 9.0893 30.4181 0.493164 19.8143 0.493164C9.21039 0.493164 0.614258 9.0893 0.614258 19.6932C0.614258 30.297 9.21039 38.8932 19.8143 38.8932Z" fill="url(#paint0_linear)"/>
<path fill-rule="evenodd" clip-rule="evenodd" d="M19.0887 28.1141H20.5957C20.5957 28.1141 21.0509 28.0641 21.2833 27.8136C21.4972 27.5836 21.4903 27.1516 21.4903 27.1516C21.4903 27.1516 21.4609 25.1296 22.3994 24.8318C23.3245 24.5385 24.5125 26.7861 25.7716 27.6503C26.7238 28.3044 27.4473 28.161 27.4473 28.161L30.8141 28.1141C30.8141 28.1141 32.5754 28.0056 31.7403 26.6208C31.6718 26.5075 31.2539 25.5964 29.237 23.7243C27.126 21.7648 27.4087 22.0818 29.9516 18.6924C31.5004 16.6282 32.1195 15.368 31.9261 14.8283C31.7417 14.3142 30.6026 14.4501 30.6026 14.4501L26.8118 14.4737C26.8118 14.4737 26.5308 14.4354 26.3223 14.56C26.1187 14.6821 25.9876 14.9669 25.9876 14.9669C25.9876 14.9669 25.3876 16.5642 24.5874 17.9226C22.8994 20.7891 22.2245 20.9403 21.9486 20.7624C21.3069 20.3475 21.4671 19.0959 21.4671 18.2067C21.4671 15.429 21.8884 14.2708 20.6467 13.9709C20.2346 13.8713 19.9313 13.8056 18.8775 13.795C17.5249 13.781 16.3801 13.7991 15.7318 14.1167C15.3006 14.3279 14.9679 14.7985 15.1705 14.8256C15.4211 14.8591 15.9885 14.9785 16.2894 15.3882C16.6778 15.9167 16.6642 17.1036 16.6642 17.1036C16.6642 17.1036 16.8873 20.3736 16.1429 20.7798C15.6319 21.0584 14.931 20.4896 13.426 17.8891C12.6549 16.557 12.0728 15.0846 12.0728 15.0846C12.0728 15.0846 11.9605 14.8095 11.7603 14.6623C11.5173 14.484 11.1778 14.4272 11.1778 14.4272L7.57549 14.4508C7.57549 14.4508 7.03472 14.4658 6.83621 14.701C6.6596 14.9101 6.82218 15.3427 6.82218 15.3427C6.82218 15.3427 9.64238 21.9408 12.8357 25.2658C15.7637 28.3143 19.0887 28.1141 19.0887 28.1141Z" fill="white"/>
</g>
<defs>
<linearGradient id="paint0_linear" x1="2.9079" y1="9.40654" x2="40.4892" y2="38.0838" gradientUnits="userSpaceOnUse">
<stop stop-color="#FC7F5D"/>
<stop offset="1" stop-color="#F8254B" stop-opacity="0.7"/>
</linearGradient>
<clipPath id="clip0">
<rect width="38.4" height="38.4" fill="white" transform="translate(0.614258 0.493164)"/>
</clipPath>
</defs>
</svg>
