<svg width="19" height="19" viewBox="0 0 19 19" fill="none" xmlns="http://www.w3.org/2000/svg">
<path d="M14.3242 8.53516C14.7341 8.53516 15.0664 8.20287 15.0664 7.79297C15.0664 7.38307 14.7341 7.05078 14.3242 7.05078C13.9143 7.05078 13.582 7.38307 13.582 7.79297C13.582 8.20287 13.9143 8.53516 14.3242 8.53516Z" fill="black"/>
<path d="M16.0312 1.48438H15.8086C15.3987 1.48438 15.0664 1.15209 15.0664 0.742188C15.0664 0.332277 14.7341 0 14.3242 0C13.9143 0 13.582 0.332277 13.582 0.742188C13.582 1.15209 13.2497 1.48438 12.8398 1.48438H10.9473C10.5374 1.48438 10.2051 1.15209 10.2051 0.742188C10.2051 0.332277 9.8728 0 9.46289 0C9.05298 0 8.7207 0.332277 8.7207 0.742188C8.7207 1.15209 8.38841 1.48438 7.97852 1.48438H6.12305C5.71315 1.48438 5.38086 1.15209 5.38086 0.742188C5.38086 0.332277 5.04858 0 4.63867 0C4.22876 0 3.89648 0.332277 3.89648 0.742188C3.89648 1.15209 3.5642 1.48438 3.1543 1.48438H2.96875C1.33178 1.48438 0 2.81616 0 4.45312V16.0312C0 17.6682 1.33178 19 2.96875 19H8.64648C9.05639 19 9.38867 18.6677 9.38867 18.2578C9.38867 17.8479 9.05639 17.5156 8.64648 17.5156H2.96875C2.15027 17.5156 1.48438 16.8497 1.48438 16.0312V4.45312C1.48438 3.63464 2.15027 2.96875 2.96875 2.96875H3.1543C3.5642 2.96875 3.89648 3.30104 3.89648 3.71094C3.89648 4.12085 4.22876 4.45312 4.63867 4.45312C5.04858 4.45312 5.38086 4.12085 5.38086 3.71094C5.38086 3.30104 5.71315 2.96875 6.12305 2.96875H7.97852C8.38841 2.96875 8.7207 3.30104 8.7207 3.71094C8.7207 4.12085 9.05298 4.45312 9.46289 4.45312C9.8728 4.45312 10.2051 4.12085 10.2051 3.71094C10.2051 3.30104 10.5374 2.96875 10.9473 2.96875H12.8398C13.2497 2.96875 13.582 3.30104 13.582 3.71094C13.582 4.12085 13.9143 4.45312 14.3242 4.45312C14.7341 4.45312 15.0664 4.12085 15.0664 3.71094C15.0664 3.30104 15.3987 2.96875 15.8086 2.96875H16.0312C16.8497 2.96875 17.5156 3.63464 17.5156 4.45312V8.68359C17.5156 9.0935 17.8479 9.42578 18.2578 9.42578C18.6677 9.42578 19 9.0935 19 8.68359V4.45312C19 2.81616 17.6682 1.48438 16.0312 1.48438Z" fill="black"/>
<path d="M14.5098 10.0195C12.0338 10.0195 10.0195 12.0338 10.0195 14.5098C10.0195 16.9857 12.0338 19 14.5098 19C16.9857 19 19 16.9857 19 14.5098C19 12.0338 16.9857 10.0195 14.5098 10.0195ZM14.5098 17.5156C12.8523 17.5156 11.5039 16.1672 11.5039 14.5098C11.5039 12.8523 12.8523 11.5039 14.5098 11.5039C16.1672 11.5039 17.5156 12.8523 17.5156 14.5098C17.5156 16.1672 16.1672 17.5156 14.5098 17.5156Z" fill="black"/>
<path d="M15.5859 13.7676C15.4015 13.7676 15.252 13.618 15.252 13.4336V12.9883C15.252 12.5784 14.9197 12.2461 14.5098 12.2461C14.0999 12.2461 13.7676 12.5784 13.7676 12.9883V14.5098C13.7676 14.9197 14.0999 15.252 14.5098 15.252H15.5859C15.9958 15.252 16.3281 14.9197 16.3281 14.5098C16.3281 14.0999 15.9958 13.7676 15.5859 13.7676Z" fill="black"/>
<path d="M11.0957 8.53516C11.5056 8.53516 11.8379 8.20287 11.8379 7.79297C11.8379 7.38307 11.5056 7.05078 11.0957 7.05078C10.6858 7.05078 10.3535 7.38307 10.3535 7.79297C10.3535 8.20287 10.6858 8.53516 11.0957 8.53516Z" fill="black"/>
<path d="M7.86719 11.7637C8.27709 11.7637 8.60938 11.4314 8.60938 11.0215C8.60938 10.6116 8.27709 10.2793 7.86719 10.2793C7.45729 10.2793 7.125 10.6116 7.125 11.0215C7.125 11.4314 7.45729 11.7637 7.86719 11.7637Z" fill="black"/>
<path d="M4.63867 8.53516C5.04857 8.53516 5.38086 8.20287 5.38086 7.79297C5.38086 7.38307 5.04857 7.05078 4.63867 7.05078C4.22877 7.05078 3.89648 7.38307 3.89648 7.79297C3.89648 8.20287 4.22877 8.53516 4.63867 8.53516Z" fill="black"/>
<path d="M4.63867 11.7637C5.04857 11.7637 5.38086 11.4314 5.38086 11.0215C5.38086 10.6116 5.04857 10.2793 4.63867 10.2793C4.22877 10.2793 3.89648 10.6116 3.89648 11.0215C3.89648 11.4314 4.22877 11.7637 4.63867 11.7637Z" fill="black"/>
<path d="M4.63867 14.9922C5.04857 14.9922 5.38086 14.6599 5.38086 14.25C5.38086 13.8401 5.04857 13.5078 4.63867 13.5078C4.22877 13.5078 3.89648 13.8401 3.89648 14.25C3.89648 14.6599 4.22877 14.9922 4.63867 14.9922Z" fill="black"/>
<path d="M7.86719 14.9922C8.27709 14.9922 8.60938 14.6599 8.60938 14.25C8.60938 13.8401 8.27709 13.5078 7.86719 13.5078C7.45729 13.5078 7.125 13.8401 7.125 14.25C7.125 14.6599 7.45729 14.9922 7.86719 14.9922Z" fill="black"/>
<path d="M7.86719 8.53516C8.27709 8.53516 8.60938 8.20287 8.60938 7.79297C8.60938 7.38307 8.27709 7.05078 7.86719 7.05078C7.45729 7.05078 7.125 7.38307 7.125 7.79297C7.125 8.20287 7.45729 8.53516 7.86719 8.53516Z" fill="black"/>
</svg>
