<svg width="19" height="23" viewBox="0 0 19 23" fill="none" xmlns="http://www.w3.org/2000/svg">
<path d="M18.0728 22.1899L15.0406 15.7759C14.9801 15.6479 14.8753 15.5499 14.7495 15.4963C13.9471 15.1391 13.637 14.1611 14.0871 13.4068L15.8548 10.4441C15.8611 10.4336 15.867 10.423 15.8726 10.4121C16.3922 9.3978 16.6557 8.30175 16.6557 7.15458C16.6557 5.22478 15.899 3.4156 14.5249 2.06035C13.151 0.705418 11.3308 -0.0264045 9.39986 0.000728281C7.52447 0.026738 5.75868 0.780033 4.42769 2.12194C3.09683 3.46376 2.35778 5.23561 2.34664 7.11123C2.33981 8.25741 2.61064 9.39879 3.12967 10.412C3.13524 10.4229 3.14112 10.4336 3.14737 10.4441L4.91021 13.3986C5.36281 14.1572 5.05093 15.1408 4.24391 15.4999C4.11979 15.5552 4.01962 15.653 3.96158 15.7759L0.929485 22.1899C0.828006 22.4044 0.870817 22.6595 1.03676 22.8291C1.20265 22.9988 1.45655 23.0474 1.67339 22.9509L3.43829 22.1652C4.73278 21.5888 6.21101 21.5888 7.50551 22.1652L9.2704 22.9509C9.41734 23.0163 9.58512 23.0163 9.73206 22.9509L11.497 22.1652C12.7914 21.5888 14.2697 21.5888 15.5642 22.1652L17.3291 22.9509C17.4033 22.9839 17.4818 23 17.5597 23C17.7094 23 17.8566 22.9408 17.9657 22.8292C18.1315 22.6595 18.1743 22.4045 18.0728 22.1899ZM4.13179 9.8786C3.6947 9.01915 3.47597 8.09048 3.48177 7.11802C3.50099 3.86437 6.16297 1.18069 9.41568 1.13563C11.0403 1.1138 12.572 1.72856 13.7279 2.86854C14.8841 4.00879 15.5207 5.53093 15.5207 7.15463C15.5207 8.11411 15.302 9.03043 14.8706 9.8786L9.98857 18.061C9.83951 18.3108 9.59811 18.3377 9.50121 18.3377C9.40427 18.3377 9.16286 18.3108 9.01385 18.061L4.13179 9.8786ZM13.7613 20.1201C13.6143 20.0548 13.4466 20.0548 13.2996 20.1201L11.5347 20.9059C10.2402 21.4822 8.762 21.4822 7.46751 20.9059L5.70261 20.1201C5.55567 20.0548 5.38789 20.0548 5.24095 20.1201C4.33568 20.5232 3.41709 19.5834 3.84061 18.6876L4.6979 16.8741C4.82684 16.6014 5.04933 16.3839 5.32496 16.2613C5.90799 16.0018 6.59296 16.219 6.91993 16.767L8.03896 18.6425C8.3491 19.1624 8.89571 19.4727 9.50103 19.4727C10.1064 19.4727 10.653 19.1624 10.9631 18.6426L12.082 16.7673C12.409 16.2191 13.0942 16.0019 13.6773 16.2615C13.9529 16.3842 14.1753 16.6017 14.3043 16.8744L15.1615 18.6877C15.585 19.5835 14.6665 20.5232 13.7613 20.1201Z" fill="black" stroke="black" stroke-width="0.2"/>
</svg>
