<svg width="19" height="19" viewBox="0 0 19 19" fill="none" xmlns="http://www.w3.org/2000/svg">
<path d="M16.0312 1.48438H15.8086C15.3987 1.48438 15.0664 1.15209 15.0664 0.742188C15.0664 0.332277 14.7341 0 14.3242 0C13.9143 0 13.582 0.332277 13.582 0.742188C13.582 1.15209 13.2497 1.48438 12.8398 1.48438H10.9473C10.5374 1.48438 10.2051 1.15209 10.2051 0.742188C10.2051 0.332277 9.8728 0 9.46289 0C9.05298 0 8.7207 0.332277 8.7207 0.742188C8.7207 1.15209 8.38841 1.48438 7.97852 1.48438H6.12305C5.71315 1.48438 5.38086 1.15209 5.38086 0.742188C5.38086 0.332277 5.04858 0 4.63867 0C4.22876 0 3.89648 0.332277 3.89648 0.742188C3.89648 1.15209 3.5642 1.48438 3.1543 1.48438H2.96875C1.33178 1.48438 0 2.81616 0 4.45312V16.0312C0 17.6682 1.33178 19 2.96875 19H8.64648C9.05639 19 9.38867 18.6677 9.38867 18.2578C9.38867 17.8479 9.05639 17.5156 8.64648 17.5156H2.96875C2.15027 17.5156 1.48438 16.8497 1.48438 16.0312V4.45312C1.48438 3.63464 2.15027 2.96875 2.96875 2.96875H3.1543C3.5642 2.96875 3.89648 3.30104 3.89648 3.71094C3.89648 4.12085 4.22876 4.45312 4.63867 4.45312C5.04858 4.45312 5.38086 4.12085 5.38086 3.71094C5.38086 3.30104 5.71315 2.96875 6.12305 2.96875H7.97852C8.38841 2.96875 8.7207 3.30104 8.7207 3.71094C8.7207 4.12085 9.05298 4.45312 9.46289 4.45312C9.8728 4.45312 10.2051 4.12085 10.2051 3.71094C10.2051 3.30104 10.5374 2.96875 10.9473 2.96875H12.8398C13.2497 2.96875 13.582 3.30104 13.582 3.71094C13.582 4.12085 13.9143 4.45312 14.3242 4.45312C14.7341 4.45312 15.0664 4.12085 15.0664 3.71094C15.0664 3.30104 15.3987 2.96875 15.8086 2.96875H16.0312C16.8497 2.96875 17.5156 3.63464 17.5156 4.45312V8.68359C17.5156 9.0935 17.8479 9.42578 18.2578 9.42578C18.6677 9.42578 19 9.0935 19 8.68359V4.45312C19 2.81616 17.6682 1.48438 16.0312 1.48438Z" fill="black"/>
</svg>
